<svg xmlns="http://www.w3.org/2000/svg" viewBox="0 0 32 32" role="img" aria-label="Wayside">
  <title>Wayside</title>
  <defs>
    <linearGradient id="wayside-green" x1="0" y1="0" x2="0" y2="1">
      <stop offset="0" stop-color="#66BB6A"/>
      <stop offset="1" stop-color="#43A047"/>
    </linearGradient>
  </defs>
  <rect width="32" height="32" rx="7" fill="url(#wayside-green)"/>
  <!-- Same glyph, enlarged to 68% so it stays legible down to 16px -->
  <path fill="#fff" transform="translate(1.4 1.4) scale(1.243)"
    d="M15.5 14h-.79l-.28-.27C15.41 12.59 16 11.11 16 9.5 16 5.91 13.09 3 9.5 3S3 5.91 3 9.5 5.91 16 9.5 16c1.61 0 3.09-.59 4.23-1.57l.27.28v.79l5 4.99L20.49 19zm-6 0C7.01 14 5 11.99 5 9.5S7.01 5 9.5 5 14 7.01 14 9.5 11.99 14 9.5 14"/>
</svg>
